<svg xmlns="http://www.w3.org/2000/svg" width="15.3" height="17" viewBox="0 0 15.3 17"><defs><style>.a{fill:#fc393b;}</style></defs><path class="a" d="M8.95,15.6a.85.85,0,0,0,.85-.85V9.65a.85.85,0,1,0-1.7,0v5.1A.85.85,0,0,0,8.95,15.6Zm8.5-10.2h-3.4V4.55A2.55,2.55,0,0,0,11.5,2H9.8A2.55,2.55,0,0,0,7.25,4.55V5.4H3.85a.85.85,0,1,0,0,1.7H4.7v9.35A2.55,2.55,0,0,0,7.25,19h6.8a2.55,2.55,0,0,0,2.55-2.55V7.1h.85a.85.85,0,0,0,0-1.7Zm-8.5-.85A.85.85,0,0,1,9.8,3.7h1.7a.85.85,0,0,1,.85.85V5.4H8.95Zm5.95,11.9a.85.85,0,0,1-.85.85H7.25a.85.85,0,0,1-.85-.85V7.1h8.5Zm-2.55-.85a.85.85,0,0,0,.85-.85V9.65a.85.85,0,1,0-1.7,0v5.1A.85.85,0,0,0,12.35,15.6Z" transform="translate(-3 -2)"/></svg>