<svg xmlns="http://www.w3.org/2000/svg" xmlns:xlink="http://www.w3.org/1999/xlink" width="174" height="90.268" viewBox="0 0 174 90.268"><defs><style>.a{fill:#fff;fill-rule:evenodd;}.b{filter:url(#a);}</style><filter id="a" x="0" y="0" width="174" height="90.268" filterUnits="userSpaceOnUse"><feOffset dy="6" input="SourceAlpha"/><feGaussianBlur stdDeviation="6" result="b"/><feFlood flood-opacity="0.302"/><feComposite operator="in" in2="b"/><feComposite in="SourceGraphic"/></filter></defs><g class="b" transform="matrix(1, 0, 0, 1, 0, 0)"><path class="a" d="M13.021,30.075h0l2.158-1.116h0l1.116,2.15,1.116,2.158-2.158,1.116,1.116,2.158-2.154,1.116L13.1,35.5l-2.154,1.116L9.829,34.461l2.154-1.116L13.1,35.5l2.154-1.116-1.116-2.154,2.158-1.116L18.445,30l3.08,6,.234.461L22,36l9.357-18.229L40.477,0H56.809L28.97,54.268H14.561L7.731,40.953l2.154-1.116L8.769,37.683,6.615,38.8,5.5,36.648l2.158-1.116L6.54,33.378h0l2.154-1.116L7.578,30.108l2.154-1.116,1.116,2.154L13,30.03Zm32.11,24.182h6.953l7.634-20.569,7.619,20.581h7.095l-11.8-29.413H56.954L45.146,54.268ZM138,30.778V24.855H113.8v5.923h8.888V54.059h6.425V30.778ZM109.581,54.059,99.536,40.477l-5.681-.033,15.179-15.588h-7.757L89.428,37.619V24.855H83v29.2h6.425V45.131l3.382-3.5,9.051,12.433ZM11.931,27.921,9.777,29.037,8.661,26.883l2.154-1.116Zm-.052-5.413L9.725,23.624l-1.116-2.15,2.154-1.116Zm4.364,3.2-2.158,1.116-1.116-2.154,2.154-1.116,1.116,2.154ZM3.259,26.927l-2.143,1.1L0,25.882l2.154-1.116,1.116,2.15Zm2.21,4.323L4.353,29.1,6.507,27.98l1.116,2.154ZM19.491,47.992l-1.116-2.154L16.22,46.954l1.116,2.154Zm-4.133-2.757-1.116-2.154L12.087,44.2,13.2,46.351Zm4.3-2.21-1.116-2.154-1.116-2.15L19.584,37.6l1.116,2.15-2.154,1.116-2.154,1.116,1.116,2.154,2.15-1.116ZM12.043,38.75,13.159,40.9,11,42.021,9.889,39.867Z" transform="translate(18 12)"/></g></svg>