<svg xmlns="http://www.w3.org/2000/svg" width="28" height="28" viewBox="0 0 28 28"><defs><style>.a,.b{fill:#e8e8e8;}.a{opacity:0;}</style></defs><rect class="a" width="28" height="28"/><path class="b" d="M24.415,17.851l-2.2-2.172V10.327A8.23,8.23,0,0,0,8.6,4a8.025,8.025,0,0,0-2.813,6.071v5.6l-2.2,2.172a1.941,1.941,0,0,0-.422,2.136A2.005,2.005,0,0,0,5,21.2H9.11v.408A4.661,4.661,0,0,0,14,26a4.661,4.661,0,0,0,4.89-4.392V21.2H23a2.005,2.005,0,0,0,1.84-1.212A1.941,1.941,0,0,0,24.415,17.851Zm-7.97,3.756A2.287,2.287,0,0,1,14,23.6a2.287,2.287,0,0,1-2.445-1.992V21.2h4.89ZM6.066,18.8l1.442-1.416a2.378,2.378,0,0,0,.721-1.7v-5.6A5.632,5.632,0,0,1,10.21,5.8a5.779,5.779,0,0,1,4.572-1.4,5.863,5.863,0,0,1,4.988,5.88v5.4a2.377,2.377,0,0,0,.709,1.7L21.934,18.8Z" transform="translate(0 0)"/></svg>