<svg xmlns="http://www.w3.org/2000/svg" width="9.623" height="14" viewBox="0 0 9.623 14"><defs><style>.a{fill:#63d5ff;}</style></defs><path class="a" d="M30.421,0a5.3,5.3,0,0,0-4.706,2.489.657.657,0,0,0,.142.9l1.18.894a.656.656,0,0,0,.909-.113,2.653,2.653,0,0,1,2.263-1.352c.841,0,1.882.541,1.882,1.357,0,.617-.509.933-1.34,1.4-.969.543-2.25,1.219-2.25,2.91V8.75a.656.656,0,0,0,.656.656h1.982a.656.656,0,0,0,.656-.656V8.592c0-1.172,3.425-1.221,3.425-4.392C35.22,1.812,32.742,0,30.421,0Zm-.274,10.212a1.894,1.894,0,1,0,1.894,1.894A1.9,1.9,0,0,0,30.147,10.212Z" transform="translate(-25.597)"/></svg>