<svg xmlns="http://www.w3.org/2000/svg" width="20.885" height="16.692" viewBox="0 0 20.885 16.692"><defs><style>.a{fill:#fd9f10;}.b{fill:none;stroke:#fd9f10;stroke-linecap:round;stroke-width:2px;}</style></defs><path class="a" d="M12.214,4.874a1.02,1.02,0,0,1-1.384,0L9.266,3.37V8.365a4.443,4.443,0,0,1-4.453,4.453H1.563a.963.963,0,1,1,0-1.926h3.25A2.478,2.478,0,0,0,7.28,8.425V3.37L5.655,4.935a1.02,1.02,0,0,1-1.384,0,1.02,1.02,0,0,1,0-1.384L7.521.3A1,1,0,0,1,8.243,0a1.11,1.11,0,0,1,.722.3l3.25,3.25A.944.944,0,0,1,12.214,4.874Z" transform="translate(8.4)"/><path class="a" d="M.871,4.874a1.02,1.02,0,0,0,1.384,0L3.82,3.37V8.365a4.443,4.443,0,0,0,4.453,4.453h3.25a.963.963,0,1,0,0-1.926H8.273A2.478,2.478,0,0,1,5.806,8.425V3.37L7.431,4.935a1.02,1.02,0,0,0,1.384,0,1.02,1.02,0,0,0,0-1.384L5.565.3A1,1,0,0,0,4.843,0a1.11,1.11,0,0,0-.722.3L.871,3.551A.944.944,0,0,0,.871,4.874Z" transform="translate(-0.6)"/><line class="b" y2="3" transform="translate(10.538 12.692)"/></svg>