<svg xmlns="http://www.w3.org/2000/svg" width="12.6" height="14" viewBox="0 0 12.6 14"><defs><style>.a{fill:#63d5ff;}</style></defs><path class="a" d="M12.1,14.6H6.5a2.1,2.1,0,0,1-2.1-2.1v-7A.7.7,0,1,0,3,5.5v7A3.5,3.5,0,0,0,6.5,16h5.6a.7.7,0,1,0,0-1.4ZM7.9,9.7a.7.7,0,0,0,.7.7h3.5a.7.7,0,0,0,0-1.4H8.6A.7.7,0,0,0,7.9,9.7Zm7.7-2.842a.917.917,0,0,0-.042-.189V6.606a.749.749,0,0,0-.133-.2h0l-4.2-4.2h0a.749.749,0,0,0-.2-.133.224.224,0,0,0-.063,0A.616.616,0,0,0,10.735,2H7.9A2.1,2.1,0,0,0,5.8,4.1v7a2.1,2.1,0,0,0,2.1,2.1h5.6a2.1,2.1,0,0,0,2.1-2.1V6.858ZM11.4,4.387,13.213,6.2H12.1a.7.7,0,0,1-.7-.7ZM14.2,11.1a.7.7,0,0,1-.7.7H7.9a.7.7,0,0,1-.7-.7v-7a.7.7,0,0,1,.7-.7H10V5.5a2.1,2.1,0,0,0,.126.7H8.6a.7.7,0,0,0,0,1.4h5.6Z" transform="translate(-3 -2)"/></svg>